<?xml version="1.0" standalone="no"?>
<!DOCTYPE svg PUBLIC "-//W3C//DTD SVG 1.1//EN" "http://www.w3.org/Graphics/SVG/1.1/DTD/svg11.dtd" >
<svg xmlns="http://www.w3.org/2000/svg">
<metadata>Generated by IcoMoon</metadata>
<defs>
<font id="Hotel-Icon-Set" horiz-adv-x="1024">
<font-face units-per-em="1024" ascent="896" descent="-128" />
<missing-glyph horiz-adv-x="1024" />
<glyph unicode="&#x20;" horiz-adv-x="0" d="" />
<glyph unicode="&#xe900;" glyph-name="angle-right-solid" horiz-adv-x="512" d="M448.6 350l-272-272c-18.8-18.8-49.2-18.8-67.8 0l-45.2 45.2c-18.8 18.8-18.8 49.2 0 67.8l192.8 192.8-192.8 192.8c-18.8 18.8-18.8 49.2 0 67.8l45 45.6c18.8 18.8 49.2 18.8 67.8 0l272-272c19-18.8 19-49.2 0.2-68z" />
<glyph unicode="&#xe901;" glyph-name="bars-solid" horiz-adv-x="896" d="M32 632h832c17.674 0 32 14.326 32 32v80c0 17.674-14.326 32-32 32h-832c-17.674 0-32-14.326-32-32v-80c0-17.674 14.326-32 32-32zM32 312h832c17.674 0 32 14.326 32 32v80c0 17.674-14.326 32-32 32h-832c-17.674 0-32-14.326-32-32v-80c0-17.674 14.326-32 32-32zM32-8h832c17.674 0 32 14.326 32 32v80c0 17.674-14.326 32-32 32h-832c-17.674 0-32-14.326-32-32v-80c0-17.674 14.326-32 32-32z" />
<glyph unicode="&#xe902;" glyph-name="bell-solid" horiz-adv-x="896" d="M448-128c70.64 0 127.94 57.3 127.94 128h-255.88c0-70.7 57.3-128 127.94-128zM878.78 171.42c-38.64 41.52-110.94 103.98-110.94 308.58 0 155.4-108.96 279.8-255.88 310.32v41.68c0 35.34-28.64 64-63.96 64s-63.96-28.66-63.96-64v-41.68c-146.92-30.52-255.88-154.92-255.88-310.32 0-204.6-72.3-267.060-110.94-308.58-12-12.9-17.32-28.32-17.22-43.42 0.22-32.8 25.96-64 64.2-64h767.6c38.24 0 64 31.2 64.2 64 0.1 15.1-5.22 30.54-17.22 43.42z" />
<glyph unicode="&#xe903;" glyph-name="car-solid" d="M999.98 544h-119.74l-33.28 83.2c-34.2 85.54-115.82 140.8-207.96 140.8h-254c-92.12 0-173.76-55.26-207.98-140.8l-33.28-83.2h-119.72c-15.62 0-27.080-14.68-23.28-29.82l12-48c2.66-10.68 12.26-18.18 23.28-18.18h40.14c-26.86-23.46-44.16-57.56-44.16-96v-96c0-32.24 12.32-61.34 32-83.86v-108.14c0-35.34 28.66-64 64-64h64c35.34 0 64 28.66 64 64v64h512v-64c0-35.34 28.66-64 64-64h64c35.34 0 64 28.66 64 64v108.14c19.68 22.5 32 51.6 32 83.86v96c0 38.44-17.3 72.54-44.14 96h40.14c11.020 0 20.62 7.5 23.28 18.18l12 48c3.78 15.14-7.68 29.82-23.3 29.82zM295.86 579.66c14.58 36.44 49.88 60.34 89.14 60.34h254c39.26 0 74.56-23.9 89.14-60.34l39.86-99.66h-512l39.86 99.66zM192 256.4c-38.4 0-64 25.52-64 63.8s25.6 63.8 64 63.8 96-57.42 96-95.7-57.6-31.9-96-31.9zM832 256.4c-38.4 0-96-6.38-96 31.9s57.6 95.7 96 95.7 64-25.52 64-63.8-25.6-63.8-64-63.8z" />
<glyph unicode="&#xe904;" glyph-name="check-circle-regular" d="M512 880c-273.934 0-496-222.066-496-496s222.066-496 496-496 496 222.066 496 496-222.066 496-496 496zM512 784c221.064 0 400-178.902 400-400 0-221.064-178.902-400-400-400-221.064 0-400 178.902-400 400 0 221.064 178.902 400 400 400zM792.408 523.466l-45.072 45.436c-9.334 9.41-24.53 9.472-33.94 0.136l-282.704-280.432-119.584 120.554c-9.334 9.41-24.53 9.472-33.94 0.138l-45.438-45.072c-9.41-9.334-9.472-24.53-0.136-33.942l181.562-183.032c9.334-9.41 24.53-9.472 33.94-0.136l345.178 342.408c9.408 9.336 9.468 24.532 0.134 33.942z" />
<glyph unicode="&#xe905;" glyph-name="check-circle-solid" d="M1008 384c0-273.934-222.066-496-496-496s-496 222.066-496 496 222.066 496 496 496 496-222.066 496-496zM454.628 121.372l368 368c12.496 12.496 12.496 32.758 0 45.254l-45.254 45.254c-12.496 12.498-32.758 12.498-45.256 0l-300.118-300.116-140.118 140.118c-12.496 12.496-32.758 12.496-45.256 0l-45.254-45.254c-12.496-12.496-12.496-32.758 0-45.254l208-208c12.498-12.498 32.758-12.498 45.256-0.002z" />
<glyph unicode="&#xe906;" glyph-name="check-solid" d="M347.796 17.192l-332.8 332.8c-19.994 19.994-19.994 52.412 0 72.408l72.406 72.408c19.994 19.996 52.414 19.996 72.408 0l224.19-224.188 480.19 480.188c19.994 19.994 52.414 19.994 72.408 0l72.406-72.408c19.994-19.994 19.994-52.412 0-72.408l-588.8-588.802c-19.996-19.994-52.414-19.994-72.408 0.002z" />
<glyph unicode="&#xe907;" glyph-name="child-solid" horiz-adv-x="768" d="M240 752c0 79.53 64.47 144 144 144s144-64.47 144-144c0-79.528-64.47-144-144-144s-144 64.472-144 144zM749.254 749.254c-24.992 24.994-65.516 24.994-90.508 0l-173.256-173.254h-202.982l-173.254 173.254c-24.992 24.994-65.516 24.994-90.508 0-24.994-24.994-24.994-65.516 0-90.51l189.254-189.252v-533.492c0-35.346 28.654-64 64-64h32c35.346 0 64 28.654 64 64v224h32v-224c0-35.346 28.654-64 64-64h32c35.346 0 64 28.654 64 64v533.492l189.254 189.254c24.994 24.994 24.994 65.514 0 90.508z" />
<glyph unicode="&#xe908;" glyph-name="clock-solid" d="M512 880c-274 0-496-222-496-496s222-496 496-496 496 222 496 496-222 496-496 496zM696.98 254v0l-40-50c-5.914-7.349-14.907-12.012-24.99-12.012-7.592 0-14.566 2.644-20.052 7.060l0.062-0.048-134 99.44c-18.355 14.784-30 37.257-30 62.45 0 0.004 0 0.007 0 0.011v-0.001 311.1c0 17.673 14.327 32 32 32v0h64c17.673 0 32-14.327 32-32v0-288l116-85c7.348-5.914 12.010-14.906 12.010-24.988 0-7.601-2.65-14.584-7.078-20.073l0.048 0.061z" />
<glyph unicode="&#xe909;" glyph-name="cloud-solid" horiz-adv-x="1280" d="M1075.2 442.8c8.2 21.4 12.8 44.8 12.8 69.2 0 106-86 192-192 192-39.4 0-76.2-12-106.6-32.4-55.4 96-158.8 160.4-277.4 160.4-176.8 0-320-143.2-320-320 0-5.4 0.2-10.8 0.4-16.2-112-39.4-192.4-146.2-192.4-271.8 0-159 129-288 288-288h736c141.4 0 256 114.6 256 256 0 123.8-88 227.2-204.8 250.8z" />
<glyph unicode="&#xe90a;" glyph-name="coffee-solid" horiz-adv-x="1280" d="M384 128h384c106 0 192 86 192 192h64c141.2 0 256 114.8 256 256s-114.8 256-256 256h-784c-26.6 0-48-21.4-48-48v-464c0-106 86-192 192-192zM1024 704c70.6 0 128-57.4 128-128s-57.4-128-128-128h-64v256h64zM1119.4-64h-1022.8c-95.2 0-122 128-72 128h1166.6c50 0 23.6-128-71.8-128z" />
<glyph unicode="&#xe90b;" glyph-name="envelope-solid" d="M1004.6 514.4c7.8 6.2 19.4 0.4 19.4-9.4v-409c0-53-43-96-96-96h-832c-53 0-96 43-96 96v408.8c0 10 11.4 15.6 19.4 9.4 44.8-34.8 104.2-79 308.2-227.2 42.2-30.8 113.4-95.6 184.4-95.2 71.4-0.6 144 65.6 184.6 95.2 204 148.2 263.2 192.6 308 227.4zM512 256c46.4-0.8 113.2 58.4 146.8 82.8 265.4 192.6 285.6 209.4 346.8 257.4 11.6 9 18.4 23 18.4 37.8v38c0 53-43 96-96 96h-832c-53 0-96-43-96-96v-38c0-14.8 6.8-28.6 18.4-37.8 61.2-47.8 81.4-64.8 346.8-257.4 33.6-24.4 100.4-83.6 146.8-82.8z" />
<glyph unicode="&#xe90c;" glyph-name="glass-martini-solid" d="M1004.1 780.8c42.5 42.52 12.4 115.2-47.7 115.2h-888.8c-60.1 0-90.2-72.68-47.7-115.2l428.1-428.080v-384.72h-112c-44.18 0-80-35.82-80-80 0-8.84 7.16-16 16-16h480c8.84 0 16 7.16 16 16 0 44.18-35.82 80-80 80h-112v384.72l428.1 428.080z" />
<glyph unicode="&#xe90d;" glyph-name="heart-solid" d="M924.6 770.8c-109.6 93.4-272.6 76.6-373.2-27.2l-39.4-40.6-39.4 40.6c-100.4 103.8-263.6 120.6-373.2 27.2-125.6-107.2-132.2-299.6-19.8-415.8l387-399.6c25-25.8 65.6-25.8 90.6 0l387 399.6c112.6 116.2 106 308.6-19.6 415.8z" />
<glyph unicode="&#xe90e;" glyph-name="leaf-solid" horiz-adv-x="1152" d="M1092.4 876.6c-11.2 25-43.2 26-56.6 2.4-62-107.8-173-175-299.8-175h-160c-212 0-384-172-384-384 0-14 1.6-27.4 3-41 127.6 91.4 311.8 169 573 169 17.6 0 32-14.4 32-32s-14.4-32-32-32c-502.8 0-716-308.2-763.2-424-13.2-32.6 2.4-69.8 35-83.2 32.8-13.6 70 2.2 83.6 34.6 3 7.2 41.8 95.8 143.8 181.2 64.8-87.8 188-171.6 349.8-154.4 314 22.8 535 304.4 535 649.2 0 100.4-21.6 204.4-59.6 289.2z" />
<glyph unicode="&#xe90f;" glyph-name="map-marker-alt-solid" horiz-adv-x="768" d="M344.536-107.34c-290.596 421.278-344.536 464.514-344.536 619.34 0 212.078 171.922 384 384 384s384-171.922 384-384c0-154.826-53.94-198.062-344.536-619.34-19.070-27.548-59.86-27.546-78.928 0zM384 352c88.366 0 160 71.634 160 160s-71.634 160-160 160-160-71.634-160-160 71.634-160 160-160z" />
<glyph unicode="&#xe910;" glyph-name="pagelines-brands" horiz-adv-x="768" d="M768 270.6c-110.2-273.4-374.2-108-374.2-108-81-163.6-214.8-268.8-369.2-269.4-32.2 0-33.2 48.8 0 48.8 128.8 0.6 241 85.4 314.4 220.2-82.2-31.8-237.2-55.8-323.2 164.4 218 89.8 318.2-22.4 356.6-91 19.8 48.8 34 101.8 43.2 159.4 0 0-279.4-43.8-299 196.2 238.2 95.8 305.2-153.4 305.2-153.4 3.2 33.4 6.6 105.2 6.6 106.8 0 0-212.6 147.4-76.2 330.4 249.2-86 122.8-324.8 122.8-324.8 1-3.2 1-47.6 0-66.8 0 0 90.4 178 272.8 115-8.4-268-283.8-212.8-283.8-212.8-8.8-54.8-22.4-106.8-40-155 0 0 166 183.6 344 40z" />
<glyph unicode="&#xe911;" glyph-name="phone-solid" d="M986.8 846.8l-208 48c-22.6 5.2-45.8-6.6-55-27.8l-96-224c-8.4-19.6-2.8-42.6 13.8-56l121.2-99.2c-72-153.4-197.8-281-354.4-354.4l-99.2 121.2c-13.6 16.6-36.4 22.2-56 13.8l-224-96c-21.4-9.4-33.2-32.6-28-55.2l48-208c5-21.6 24.2-37.2 46.8-37.2 512.2 0 928 415 928 928 0 22.4-15.4 41.8-37.2 46.8z" />
<glyph unicode="&#xe912;" glyph-name="quote-left-solid" d="M928 384h-160v128c0 70.6 57.4 128 128 128h16c26.6 0 48 21.4 48 48v96c0 26.6-21.4 48-48 48h-16c-176.8 0-320-143.2-320-320v-480c0-53 43-96 96-96h256c53 0 96 43 96 96v256c0 53-43 96-96 96zM352 384h-160v128c0 70.6 57.4 128 128 128h16c26.6 0 48 21.4 48 48v96c0 26.6-21.4 48-48 48h-16c-176.8 0-320-143.2-320-320v-480c0-53 43-96 96-96h256c53 0 96 43 96 96v256c0 53-43 96-96 96z" />
<glyph unicode="&#xe913;" glyph-name="shopping-cart-solid" horiz-adv-x="1152" d="M1056.24 293.362l94.546 416c6.826 30.036-16.004 58.638-46.806 58.638h-785.564l-18.332 89.62c-4.568 22.338-24.224 38.38-47.026 38.38h-205.058c-26.51 0-48-21.49-48-48v-32c0-26.51 21.49-48 48-48h139.766l140.496-686.87c-33.612-19.33-56.262-55.574-56.262-97.13 0-61.856 50.144-112 112-112s112 50.144 112 112c0 31.348-12.894 59.67-33.648 80h419.294c-20.752-20.33-33.646-48.652-33.646-80 0-61.856 50.144-112 112-112s112 50.144 112 112c0 44.344-25.776 82.664-63.158 100.81l11.034 48.552c6.826 30.036-16.004 58.638-46.806 58.638h-536.836l-13.090 64h586.29c22.412 0 41.84 15.508 46.806 37.362z" />
<glyph unicode="&#xe914;" glyph-name="signal-solid" horiz-adv-x="1280" d="M432 320h-96c-17.68 0-32-14.32-32-32v-384c0-17.68 14.32-32 32-32h96c17.68 0 32 14.32 32 32v384c0 17.68-14.32 32-32 32zM176 128h-96c-17.68 0-32-14.32-32-32v-192c0-17.68 14.32-32 32-32h96c17.68 0 32 14.32 32 32v192c0 17.68-14.32 32-32 32zM688 512h-96c-17.68 0-32-14.32-32-32v-576c0-17.68 14.32-32 32-32h96c17.68 0 32 14.32 32 32v576c0 17.68-14.32 32-32 32zM944 704h-96c-17.68 0-32-14.32-32-32v-768c0-17.68 14.32-32 32-32h96c17.68 0 32 14.32 32 32v768c0 17.68-14.32 32-32 32zM1200 896h-96c-17.68 0-32-14.32-32-32v-960c0-17.68 14.32-32 32-32h96c17.68 0 32 14.32 32 32v960c0 17.68-14.32 32-32 32z" />
<glyph unicode="&#xe915;" glyph-name="star-solid" horiz-adv-x="1152" d="M518.6 860.4l-130.6-264.8-292.2-42.6c-52.4-7.6-73.4-72.2-35.4-109.2l211.4-206-50-291c-9-52.6 46.4-92 92.8-67.4l261.4 137.4 261.4-137.4c46.4-24.4 101.8 14.8 92.8 67.4l-50 291 211.4 206c38 37 17 101.6-35.4 109.2l-292.2 42.6-130.6 264.8c-23.4 47.2-91.2 47.8-114.8 0z" />
<glyph unicode="&#xe916;" glyph-name="times-solid" horiz-adv-x="704" d="M485.44 384l200.14 200.14c24.56 24.56 24.56 64.38 0 88.96l-44.48 44.48c-24.56 24.56-64.38 24.56-88.96 0l-200.14-200.14-200.14 200.14c-24.56 24.56-64.38 24.56-88.96 0l-44.48-44.48c-24.56-24.56-24.56-64.38 0-88.96l200.14-200.14-200.14-200.14c-24.56-24.56-24.56-64.38 0-88.96l44.48-44.48c24.56-24.56 64.4-24.56 88.96 0l200.14 200.14 200.14-200.14c24.56-24.56 64.4-24.56 88.96 0l44.48 44.48c24.56 24.56 24.56 64.38 0 88.96l-200.14 200.14z" />
<glyph unicode="&#xe917;" glyph-name="tint-solid" horiz-adv-x="704" d="M410.44 851.82c-15.88 57.56-98.88 60.24-116.88 0-93.54-315.52-293.56-401.26-293.56-623.64 0-196.88 157.44-356.18 352-356.18s352 159.3 352 356.18c0 223.5-199.58 306.68-293.56 623.64zM352 0c-123.5 0-224 100.5-224 224 0 17.68 14.32 32 32 32s32-14.32 32-32c0-88.22 71.78-160 160-160 17.68 0 32-14.32 32-32s-14.32-32-32-32z" />
<glyph unicode="&#xe918;" glyph-name="utensils-solid" horiz-adv-x="832" d="M415.8 865.6c1.6-9.4 32.2-189 32.2-257.6 0-104.6-55.6-179.2-137.8-209.2l25.8-476.2c1.4-27.4-20.4-50.6-48-50.6h-128c-27.4 0-49.4 23-48 50.6l25.8 476.2c-82.4 30-137.8 104.8-137.8 209.2 0 68.8 30.6 248.2 32.2 257.6 6.4 40.6 90.6 41.2 95.8-2.2v-282.4c2.6-6.8 30.2-6.4 32 0 2.8 50.6 15.8 278.4 16 283.6 6.6 41.6 89.4 41.6 95.8 0 0.4-5.4 13.2-233 16-283.6 1.8-6.4 29.6-6.8 32 0v282.4c5.2 43.2 89.6 42.8 96 2.2zM654.2 294.2l-30-370.2c-2.4-28 19.8-52 47.8-52h112c26.6 0 48 21.4 48 48v928c0 26.4-21.4 48-48 48-165 0-442.8-357-129.8-601.8z" />
</font>
</defs>
</svg>
